<svg xmlns="http://www.w3.org/2000/svg" viewBox="0 0 760 620" role="img" aria-labelledby="title desc">
<title id="title">Tre caravelle nell'oceano</title>
<desc id="desc">Illustrazione stilizzata di navi a vela su onde oceaniche con sole e stelle.</desc>
<defs>
  <linearGradient id="sea" x1="0" x2="1"><stop stop-color="#0f6f7a"/><stop offset="1" stop-color="#17324d"/></linearGradient>
  <linearGradient id="sun" x1="0" x2="1"><stop stop-color="#ffd08a"/><stop offset="1" stop-color="#c98a2b"/></linearGradient>
  <filter id="shadow"><feDropShadow dx="0" dy="18" stdDeviation="18" flood-opacity=".25"/></filter>
</defs>
<rect width="760" height="620" rx="42" fill="#fff4df"/>
<circle cx="595" cy="132" r="78" fill="url(#sun)" opacity=".95"/>
<path d="M0 420c80-42 155-36 230 0s150 42 235 0 170-44 295 0v200H0z" fill="url(#sea)"/>
<path d="M0 480c95-36 172-26 245 5s140 28 226-8 173-42 289 7" fill="none" stroke="#ffffff" stroke-width="8" opacity=".55"/>
<g filter="url(#shadow)" transform="translate(110 172)">
  <path d="M98 245h170c-11 48-52 70-112 70S54 293 41 245z" fill="#8f3d1d"/>
  <path d="M78 245h210" stroke="#47230f" stroke-width="8" stroke-linecap="round"/>
  <path d="M157 48v195" stroke="#47230f" stroke-width="8" stroke-linecap="round"/>
  <path d="M165 66c78 28 105 83 91 150H165z" fill="#f7dfae" stroke="#47230f" stroke-width="4"/>
  <path d="M149 86c-62 35-81 86-68 137h68z" fill="#fffaf0" stroke="#47230f" stroke-width="4"/>
  <path d="M157 42l46 26-46 26z" fill="#c98a2b"/>
</g>
<g transform="translate(438 250) scale(.68)" opacity=".92">
  <path d="M98 245h170c-11 48-52 70-112 70S54 293 41 245z" fill="#8f3d1d"/>
  <path d="M78 245h210" stroke="#47230f" stroke-width="8" stroke-linecap="round"/>
  <path d="M157 48v195" stroke="#47230f" stroke-width="8" stroke-linecap="round"/>
  <path d="M165 66c78 28 105 83 91 150H165z" fill="#f7dfae" stroke="#47230f" stroke-width="4"/>
  <path d="M149 86c-62 35-81 86-68 137h68z" fill="#fffaf0" stroke="#47230f" stroke-width="4"/>
</g>
<g transform="translate(80 300) scale(.48)" opacity=".78">
  <path d="M98 245h170c-11 48-52 70-112 70S54 293 41 245z" fill="#8f3d1d"/>
  <path d="M78 245h210" stroke="#47230f" stroke-width="8" stroke-linecap="round"/>
  <path d="M157 48v195" stroke="#47230f" stroke-width="8" stroke-linecap="round"/>
  <path d="M165 66c78 28 105 83 91 150H165z" fill="#f7dfae" stroke="#47230f" stroke-width="4"/>
</g>
<g fill="#8f3d1d" opacity=".5">
  <circle cx="92" cy="84" r="5"/><circle cx="172" cy="112" r="3"/><circle cx="648" cy="262" r="4"/><circle cx="536" cy="54" r="3"/>
</g>
</svg>