<svg xmlns="http://www.w3.org/2000/svg" viewBox="0 0 900 520">
<rect width="900" height="520" rx="36" fill="#fff4df"/>
<path d="M0 340c95-50 178-42 270 0s186 42 285 0 205-48 345 0v180H0z" fill="#0f6f7a" opacity=".18"/>
<path d="M140 120c62 18 100 72 88 134-88 12-142-23-166-78 26-34 49-51 78-56z" fill="#c98a2b" opacity=".75"/>
<text x="80" y="285" font-family="Arial" font-size="28" font-weight="700" fill="#17202a">Spagna</text>
<path d="M690 124c74 21 107 85 91 152-69 23-143 5-183-52 19-58 47-88 92-100z" fill="#8f3d1d" opacity=".78"/>
<text x="610" y="310" font-family="Arial" font-size="28" font-weight="700" fill="#17202a">Bahamas</text>
<path d="M208 240C330 150 500 148 674 220" fill="none" stroke="#8f3d1d" stroke-width="9" stroke-linecap="round" stroke-dasharray="16 18"/>
<path d="M676 220l-40-9 24 33z" fill="#8f3d1d"/>
<circle cx="207" cy="240" r="12" fill="#8f3d1d"/>
<circle cx="674" cy="220" r="12" fill="#8f3d1d"/>
<text x="310" y="118" font-family="Arial" font-size="24" font-weight="700" fill="#0f6f7a">Atlantico</text>
<g transform="translate(420 205) scale(.45)">
  <path d="M98 245h170c-11 48-52 70-112 70S54 293 41 245z" fill="#8f3d1d"/>
  <path d="M78 245h210" stroke="#47230f" stroke-width="8" stroke-linecap="round"/>
  <path d="M157 48v195" stroke="#47230f" stroke-width="8" stroke-linecap="round"/>
  <path d="M165 66c78 28 105 83 91 150H165z" fill="#f7dfae" stroke="#47230f" stroke-width="4"/>
</g>
</svg>