<svg xmlns="http://www.w3.org/2000/svg" viewBox="0 0 720 520">
<rect width="720" height="520" rx="42" fill="#fff4df"/>
<path d="M84 402C180 330 275 452 388 365S572 270 640 340" fill="none" stroke="#0f6f7a" stroke-width="18" stroke-linecap="round" opacity=".22"/>
<path d="M110 125c145-72 315-62 500 0v270c-185-62-355-72-500 0z" fill="#f8e7c2" stroke="#8f3d1d" stroke-width="7"/>
<path d="M360 92v308" stroke="#8f3d1d" stroke-width="4" opacity=".45"/>
<path d="M180 180c72 33 124 35 177 0 55-37 104-39 185 0" fill="none" stroke="#c98a2b" stroke-width="9" stroke-linecap="round"/>
<circle cx="360" cy="260" r="88" fill="none" stroke="#0f6f7a" stroke-width="8"/>
<path d="M360 123l24 137-24 137-24-137z" fill="#8f3d1d"/>
<path d="M223 260l137-24 137 24-137 24z" fill="#c98a2b" opacity=".9"/>
<circle cx="360" cy="260" r="12" fill="#17202a"/>
</svg>