<svg xmlns="http://www.w3.org/2000/svg" viewBox="0 0 720 520">
<rect width="720" height="520" rx="42" fill="#fff4df"/>
<path d="M0 360c90-40 180-34 270 0s180 40 270 0 140-35 180 0v160H0z" fill="#0f6f7a" opacity=".18"/>
<ellipse cx="220" cy="245" rx="110" ry="42" fill="#8f3d1d" opacity=".85"/>
<ellipse cx="420" cy="310" rx="132" ry="48" fill="#c98a2b" opacity=".8"/>
<ellipse cx="520" cy="190" rx="80" ry="30" fill="#8f3d1d" opacity=".68"/>
<path d="M230 234c12-62 48-96 93-125" stroke="#5b341e" stroke-width="8" stroke-linecap="round"/>
<path d="M320 118c-30-20-64-21-98 4 40 8 70 11 98-4z" fill="#0f6f7a"/>
<path d="M320 118c-4-38 10-67 47-88-8 43-18 70-47 88z" fill="#0f6f7a"/>
<path d="M320 118c36-22 72-18 112 10-44 8-80 5-112-10z" fill="#0f6f7a"/>
<circle cx="134" cy="170" r="8" fill="#c98a2b"/>
<circle cx="603" cy="292" r="7" fill="#8f3d1d"/>
<circle cx="365" cy="140" r="5" fill="#c98a2b"/>
<text x="82" y="438" font-family="Arial" font-size="28" font-weight="700" fill="#17202a">Caraibi e società indigene</text>
</svg>